<svg data-v-423bf9ae="" xmlns="http://www.w3.org/2000/svg" viewBox="0 0 205.7765667574932 60" class="font"><!----><!----><!----><g data-v-423bf9ae="" id="2f30dd38-1967-4375-b638-5256c3442f45" fill="white" transform="matrix(4.650317668914795,0,0,4.650317668914795,-0.47229352593421936,-12.933694839477539)"><path d="M7.31 12.85L7.31 12.85L7.31 12.85Q7.27 12.85 7.20 12.85L7.20 12.85L7.20 12.85Q7.14 12.85 7.11 12.82L7.11 12.82L7.11 12.82Q7.08 12.82 7.06 12.80L7.06 12.80L7.06 12.80Q7.03 12.78 7 12.77L7 12.77L7 12.77Q6.82 12.63 6.65 12.31L6.65 12.31L6.65 12.31Q6.48 11.98 6.33 11.62L6.33 11.62L6.33 11.62Q6.19 11.26 6.07 10.90L6.07 10.90L6.07 10.90Q5.95 10.54 5.87 10.32L5.87 10.32L5.87 10.32Q5.82 10.22 5.77 10.11L5.77 10.11L5.24 10.12L5.24 10.12Q5.03 10.14 4.76 10.10L4.76 10.10L4.76 10.10Q4.49 10.07 4.28 10.09L4.28 10.09L4.28 10.09Q3.75 10.16 3.30 10.14L3.30 10.14L3.30 10.14Q2.86 10.11 2.42 10.08L2.42 10.08L2.42 10.08Q2.34 10.33 2.21 10.72L2.21 10.72L2.21 10.72Q2.07 11.12 1.92 11.52L1.92 11.52L1.92 11.52Q1.76 11.93 1.60 12.30L1.60 12.30L1.60 12.30Q1.44 12.67 1.30 12.88L1.30 12.88L1.30 12.88Q1.22 12.88 1.08 12.88L1.08 12.88L1.08 12.88Q0.95 12.88 0.81 12.88L0.81 12.88L0.81 12.88Q0.67 12.88 0.54 12.87L0.54 12.87L0.54 12.87Q0.41 12.87 0.32 12.84L0.32 12.84L0.32 12.84Q0.27 12.75 0.22 12.73L0.22 12.73L0.22 12.73Q0.18 12.71 0.15 12.70L0.15 12.70L0.15 12.70Q0.13 12.68 0.11 12.66L0.11 12.66L0.11 12.66Q0.10 12.64 0.10 12.57L0.10 12.57L0.10 12.57Q0.10 12.53 0.11 12.46L0.11 12.46L0.11 12.46Q0.13 12.39 0.15 12.31L0.15 12.31L0.15 12.31Q0.17 12.22 0.18 12.15L0.18 12.15L0.18 12.15Q0.20 12.08 0.18 12.05L0.18 12.05L0.18 12.05Q0.22 11.84 0.29 11.61L0.29 11.61L0.29 11.61Q0.36 11.37 0.43 11.16L0.43 11.16L0.43 11.16Q0.50 10.88 0.61 10.60L0.61 10.60L0.61 10.60Q0.71 10.32 0.83 10.04L0.83 10.04L0.83 10.04Q1.02 9.55 1.21 9.06L1.21 9.06L1.21 9.06Q1.40 8.57 1.60 8.08L1.60 8.08L1.60 8.08Q1.96 7.17 2.32 6.27L2.32 6.27L2.32 6.27Q2.69 5.36 3.09 4.48L3.09 4.48L3.09 4.48Q3.23 4.17 3.42 3.93L3.42 3.93L3.42 3.93Q3.53 3.78 3.67 3.66L3.67 3.66L3.67 3.66Q3.81 3.54 3.92 3.40L3.92 3.40L3.92 3.40Q4.02 3.37 4.09 3.32L4.09 3.32L4.09 3.32Q4.17 3.28 4.24 3.21L4.24 3.21L4.40 3.18L4.38 3.18L4.38 3.18Q4.66 3.18 4.85 3.26L4.85 3.26L4.85 3.26Q5.04 3.33 5.17 3.44L5.17 3.44L5.17 3.44Q5.29 3.54 5.37 3.65L5.37 3.65L5.37 3.65Q5.45 3.77 5.50 3.84L5.50 3.84L5.50 3.84Q5.67 4.41 5.81 4.98L5.81 4.98L5.81 4.98Q5.95 5.54 6.12 6.13L6.12 6.13L6.12 6.13Q6.43 7.22 6.77 8.28L6.77 8.28L6.77 8.28Q7.11 9.34 7.50 10.40L7.50 10.40L7.50 10.40Q7.69 10.89 7.86 11.37L7.86 11.37L7.86 11.37Q8.04 11.84 8.23 12.31L8.23 12.31L7.95 12.54L7.95 12.54Q7.92 12.56 7.83 12.60L7.83 12.60L7.83 12.60Q7.74 12.64 7.63 12.69L7.63 12.69L7.63 12.69Q7.52 12.74 7.42 12.79L7.42 12.79L7.42 12.79Q7.32 12.84 7.31 12.85ZM5.36 8.82L5.38 8.71L5.38 8.71Q5.29 8.36 5.24 8.16L5.24 8.16L5.24 8.16Q5.19 7.95 5.15 7.78L5.15 7.78L5.15 7.78Q5.11 7.62 5.05 7.41L5.05 7.41L5.05 7.41Q5.00 7.21 4.90 6.86L4.90 6.86L4.62 5.91L4.62 5.91Q4.56 5.73 4.50 5.47L4.50 5.47L4.50 5.47Q4.44 5.21 4.37 5.01L4.37 5.01L4.37 5.01Q4.14 5.49 3.96 5.94L3.96 5.94L3.96 5.94Q3.78 6.38 3.61 6.83L3.61 6.83L3.61 6.83Q3.44 7.27 3.29 7.72L3.29 7.72L3.29 7.72Q3.14 8.18 2.97 8.68L2.97 8.68L2.97 8.68Q3.08 8.71 3.12 8.72L3.12 8.72L3.12 8.72Q3.26 8.75 3.56 8.78L3.56 8.78L3.56 8.78Q3.86 8.81 4.21 8.83L4.21 8.83L4.21 8.83Q4.55 8.85 4.87 8.85L4.87 8.85L4.87 8.85Q5.19 8.85 5.36 8.82L5.36 8.82ZM9.60 12.77L9.60 12.77L9.60 12.77Q9.58 12.36 9.56 11.75L9.56 11.75L9.56 11.75Q9.55 11.14 9.55 10.46L9.55 10.46L9.55 10.46Q9.55 9.77 9.54 9.09L9.54 9.09L9.54 9.09Q9.53 8.40 9.53 7.83L9.53 7.83L9.52 5.43L9.52 5.43Q9.52 5.49 9.51 5.34L9.51 5.34L9.51 5.34Q9.51 5.19 9.50 4.94L9.50 4.94L9.50 4.94Q9.49 4.68 9.51 4.35L9.51 4.35L9.51 4.35Q9.52 4.03 9.55 3.75L9.55 3.75L9.55 3.75Q9.58 3.46 9.64 3.26L9.64 3.26L9.64 3.26Q9.70 3.05 9.80 3.01L9.80 3.01L9.80 3.01Q9.94 2.94 10.02 2.93L10.02 2.93L10.02 2.93Q10.09 2.91 10.26 2.91L10.26 2.91L10.26 2.91Q10.46 2.91 10.68 2.86L10.68 2.86L10.68 2.86Q10.91 2.81 11.10 2.81L11.10 2.81L11.10 2.81Q11.30 2.81 11.50 2.79L11.50 2.79L11.50 2.79Q11.70 2.77 11.90 2.79L11.90 2.79L11.90 2.79Q12.22 2.80 12.57 2.83L12.57 2.83L12.57 2.83Q12.91 2.86 13.20 2.88L13.20 2.88L13.20 2.88Q13.69 2.94 14.10 3.20L14.10 3.20L14.10 3.20Q14.50 3.46 14.83 3.79L14.83 3.79L14.83 3.79Q15.16 4.14 15.39 4.56L15.39 4.56L15.39 4.56Q15.62 4.98 15.69 5.47L15.69 5.47L15.69 5.47Q15.69 5.53 15.71 5.57L15.71 5.57L15.71 5.57Q15.72 5.61 15.74 5.67L15.74 5.67L15.74 5.67Q15.75 5.71 15.74 5.80L15.74 5.80L15.74 5.80Q15.74 5.88 15.73 5.98L15.73 5.98L15.73 5.98Q15.72 6.08 15.71 6.17L15.71 6.17L15.71 6.17Q15.69 6.27 15.69 6.31L15.69 6.31L15.69 6.31Q15.65 6.72 15.46 7.09L15.46 7.09L15.46 7.09Q15.27 7.46 14.99 7.78L14.99 7.78L14.99 7.78Q14.71 8.09 14.37 8.34L14.37 8.34L14.37 8.34Q14.03 8.60 13.68 8.76L13.68 8.76L13.68 8.76Q13.23 8.97 12.80 9.07L12.80 9.07L12.80 9.07Q12.36 9.16 12.00 9.18L12.00 9.18L12.00 9.18Q11.63 9.21 11.36 9.21L11.36 9.21L11.36 9.21Q11.09 9.20 10.96 9.21L10.96 9.21L10.96 9.21Q10.95 9.21 10.95 9.41L10.95 9.41L10.95 9.41Q10.95 9.60 10.96 9.91L10.96 9.91L10.96 9.91Q10.96 10.21 10.98 10.56L10.98 10.56L10.98 10.56Q10.99 10.92 11.00 11.24L11.00 11.24L11.00 11.24Q11.00 11.56 11.02 11.80L11.02 11.80L11.02 11.80Q11.03 12.04 11.05 12.10L11.05 12.10L11.05 12.10Q11.05 12.12 11.05 12.22L11.05 12.22L11.05 12.22Q11.06 12.32 11.06 12.43L11.06 12.43L11.06 12.43Q11.06 12.53 11.05 12.62L11.05 12.62L11.05 12.62Q11.05 12.71 11.03 12.73L11.03 12.73L11.03 12.73Q11.00 12.85 10.82 12.91L10.82 12.91L10.82 12.91Q10.64 12.96 10.40 12.96L10.40 12.96L10.40 12.96Q10.16 12.96 9.93 12.91L9.93 12.91L9.93 12.91Q9.70 12.85 9.60 12.77ZM11.82 4.09L11.80 4.10L11.80 4.10Q11.61 4.10 11.40 4.14L11.40 4.14L11.40 4.14Q11.20 4.17 11.00 4.23L11.00 4.23L11.00 4.23Q10.92 4.45 10.90 4.70L10.90 4.70L10.90 4.70Q10.88 4.96 10.88 5.22L10.88 5.22L10.88 5.22Q10.88 5.49 10.88 5.75L10.88 5.75L10.88 5.75Q10.89 6.02 10.89 6.26L10.89 6.26L10.89 7.18L10.89 7.18Q10.89 7.22 10.89 7.32L10.89 7.32L10.89 7.32Q10.89 7.41 10.89 7.51L10.89 7.51L10.89 7.51Q10.89 7.62 10.89 7.73L10.89 7.73L10.89 7.73Q10.89 7.84 10.91 7.92L10.91 7.92L10.91 7.92Q11.44 7.99 11.87 7.95L11.87 7.95L11.87 7.95Q12.31 7.90 12.66 7.76L12.66 7.76L12.66 7.76Q13.01 7.63 13.29 7.43L13.29 7.43L13.29 7.43Q13.58 7.24 13.83 7.03L13.83 7.03L13.83 7.03Q14.28 6.64 14.37 6.12L14.37 6.12L14.37 6.12Q14.46 5.60 14.27 5.15L14.27 5.15L14.27 5.15Q14.08 4.70 13.64 4.39L13.64 4.39L13.64 4.39Q13.19 4.07 12.56 4.07L12.56 4.07L12.56 4.07Q12.38 4.07 12.19 4.07L12.19 4.07L12.19 4.07Q12.01 4.07 11.82 4.09L11.82 4.09ZM17.07 12.59L17.07 12.59L17.07 12.59Q17.00 12.26 17.00 11.79L17.00 11.79L17.00 11.79Q17.00 11.33 17.02 10.82L17.02 10.82L17.02 10.82Q17.04 10.32 17.07 9.85L17.07 9.85L17.07 9.85Q17.09 9.38 17.09 9.04L17.09 9.04L17.11 9.04L17.11 9.04Q17.19 7.83 17.19 6.58L17.19 6.58L17.19 6.58Q17.19 6.13 17.23 5.68L17.23 5.68L17.23 5.68Q17.28 5.24 17.28 4.79L17.28 4.79L17.28 4.79Q17.28 4.41 17.28 4.00L17.28 4.00L17.28 4.00Q17.28 3.58 17.36 3.22L17.36 3.22L17.36 3.22Q17.57 3.07 17.72 3.08L17.72 3.08L17.72 3.08Q17.86 3.09 18.13 3.12L18.13 3.12L18.13 3.12Q18.14 3.15 18.23 3.16L18.23 3.16L18.23 3.16Q18.31 3.18 18.42 3.19L18.42 3.19L18.42 3.19Q18.52 3.21 18.61 3.21L18.61 3.21L18.61 3.21Q18.70 3.21 18.73 3.22L18.73 3.22L18.73 3.22Q18.66 5.21 18.67 7.16L18.67 7.16L18.67 7.16Q18.68 9.11 18.61 11.10L18.61 11.10L18.55 12.63L18.55 12.63Q18.48 12.67 18.38 12.71L18.38 12.71L18.38 12.71Q18.30 12.74 18.19 12.76L18.19 12.76L18.19 12.76Q18.07 12.78 17.93 12.75L17.93 12.75L17.93 12.75Q17.89 12.75 17.77 12.73L17.77 12.73L17.77 12.73Q17.64 12.71 17.50 12.68L17.50 12.68L17.50 12.68Q17.36 12.64 17.23 12.61L17.23 12.61L17.23 12.61Q17.11 12.59 17.07 12.59ZM20.87 7.90L20.87 7.90L20.87 7.90Q20.93 7.83 21.14 7.67L21.14 7.67L21.14 7.67Q21.35 7.52 21.53 7.41L21.53 7.41L21.53 7.41Q21.85 7.22 22.13 7.18L22.13 7.18L22.13 7.18Q22.41 7.14 22.75 7.07L22.75 7.07L22.79 7.08L22.79 7.08Q23.27 7.18 23.60 7.29L23.60 7.29L23.60 7.29Q23.94 7.41 24.30 7.78L24.30 7.78L24.30 7.78Q25.02 8.53 25.02 9.52L25.02 9.52L25.02 9.52Q25.02 10.28 24.70 10.81L24.70 10.81L24.70 10.81Q24.39 11.34 23.83 11.82L23.83 11.82L23.83 11.82Q23.59 12.01 23.25 12.21L23.25 12.21L23.25 12.21Q22.90 12.42 22.53 12.54L22.53 12.54L22.53 12.54Q22.15 12.67 21.78 12.70L21.78 12.70L21.78 12.70Q21.41 12.73 21.10 12.57L21.10 12.57L21.10 12.57Q20.99 12.57 20.92 12.50L20.92 12.50L20.92 12.50Q20.86 12.43 20.75 12.42L20.75 12.42L20.75 12.42Q20.75 12.88 20.73 13.35L20.73 13.35L20.73 13.35Q20.72 13.82 20.69 14.28L20.69 14.28L20.73 15.54L20.73 15.54Q20.58 15.58 20.50 15.62L20.50 15.62L20.50 15.62Q20.41 15.65 20.33 15.66L20.33 15.66L20.33 15.66Q20.26 15.67 20.17 15.65L20.17 15.65L20.17 15.65Q20.08 15.64 19.94 15.58L19.94 15.58L19.94 15.58Q19.91 15.57 19.77 15.53L19.77 15.53L19.77 15.53Q19.64 15.48 19.63 15.47L19.63 15.47L19.63 15.47Q19.59 15.43 19.59 15.32L19.59 15.32L19.59 9.38L19.59 9.38Q19.59 9.11 19.59 8.95L19.59 8.95L19.59 8.95Q19.59 8.78 19.58 8.63L19.58 8.63L19.58 8.63Q19.57 8.48 19.57 8.32L19.57 8.32L19.57 8.32Q19.57 8.15 19.57 7.88L19.57 7.88L19.57 7.88Q19.57 7.73 19.55 7.52L19.55 7.52L19.55 7.52Q19.53 7.31 19.54 7.15L19.54 7.15L19.54 7.15Q19.59 7.14 19.70 7.11L19.70 7.11L19.70 7.11Q19.82 7.07 20.00 7.04L20.00 7.04L20.00 7.04Q20.17 7.01 20.40 7L20.40 7L20.40 7Q20.62 6.99 20.86 7.01L20.86 7.01L20.86 7.01Q20.86 7.18 20.85 7.28L20.85 7.28L20.85 7.28Q20.83 7.38 20.82 7.46L20.82 7.46L20.82 7.46Q20.82 7.55 20.82 7.64L20.82 7.64L20.82 7.64Q20.83 7.74 20.87 7.90ZM20.80 11.31L20.80 11.31L20.80 11.31Q21.22 11.54 21.76 11.40L21.76 11.40L21.76 11.40Q22.15 11.30 22.52 11.15L22.52 11.15L22.52 11.15Q22.89 11.00 23.18 10.78L23.18 10.78L23.18 10.78Q23.46 10.56 23.64 10.23L23.64 10.23L23.64 10.23Q23.81 9.90 23.81 9.42L23.81 9.42L23.81 9.42Q23.81 8.92 23.46 8.67L23.46 8.67L23.46 8.67Q23.11 8.43 22.64 8.39L22.64 8.39L22.64 8.39Q22.18 8.34 21.70 8.49L21.70 8.49L21.70 8.49Q21.22 8.64 20.97 8.90L20.97 8.90L20.97 8.90Q20.87 9.00 20.83 9.34L20.83 9.34L20.83 9.34Q20.79 9.67 20.78 10.07L20.78 10.07L20.78 10.07Q20.76 10.46 20.78 10.82L20.78 10.82L20.78 10.82Q20.79 11.17 20.80 11.31ZM28.94 6.76L28.94 6.76L28.94 6.76Q29.36 6.73 29.80 6.82L29.80 6.82L29.80 6.82Q30.24 6.90 30.60 7.15L30.60 7.15L30.60 7.15Q31.21 7.56 31.51 8.16L31.51 8.16L31.51 8.16Q31.82 8.76 31.85 9.41L31.85 9.41L31.85 9.41Q31.88 10.07 31.66 10.72L31.66 10.72L31.66 10.72Q31.44 11.37 31.02 11.87L31.02 11.87L31.02 11.87Q30.59 12.38 29.97 12.68L29.97 12.68L29.97 12.68Q29.34 12.98 28.56 12.94L28.56 12.94L28.56 12.94Q28.24 12.92 27.93 12.81L27.93 12.81L27.93 12.81Q27.29 12.59 26.86 12.19L26.86 12.19L26.86 12.19Q26.43 11.79 26.21 11.28L26.21 11.28L26.21 11.28Q25.98 10.77 25.96 10.20L25.96 10.20L25.96 10.20Q25.94 9.63 26.12 9.09L26.12 9.09L26.12 9.09Q26.29 8.54 26.66 8.06L26.66 8.06L26.66 8.06Q27.02 7.59 27.58 7.25L27.58 7.25L27.58 7.25Q27.73 7.15 27.92 7.05L27.92 7.05L27.92 7.05Q28.11 6.94 28.31 6.87L28.31 6.87L28.31 6.87Q28.46 6.82 28.63 6.80L28.63 6.80L28.63 6.80Q28.80 6.78 28.94 6.76ZM30.65 9.45L30.65 9.45L30.65 9.45Q30.65 9.00 30.45 8.66L30.45 8.66L30.45 8.66Q30.25 8.32 29.94 8.12L29.94 8.12L29.94 8.12Q29.62 7.92 29.23 7.88L29.23 7.88L29.23 7.88Q28.84 7.84 28.46 7.99L28.46 7.99L28.46 7.99Q28.08 8.15 27.76 8.50L27.76 8.50L27.76 8.50Q27.44 8.85 27.26 9.44L27.26 9.44L27.26 9.44Q27.22 9.58 27.17 9.71L27.17 9.71L27.17 9.71Q27.13 9.84 27.13 9.98L27.13 9.98L27.13 9.98Q27.13 10.26 27.17 10.54L27.17 10.54L27.17 10.54Q27.22 10.81 27.36 11.05L27.36 11.05L27.36 11.05Q27.61 11.48 28.15 11.60L28.15 11.60L28.15 11.60Q28.69 11.72 29.25 11.52L29.25 11.52L29.25 11.52Q29.81 11.31 30.23 10.79L30.23 10.79L30.23 10.79Q30.65 10.28 30.65 9.45ZM37.52 12.66L37.52 12.66L37.52 12.66Q37.42 12.67 37.32 12.68L37.32 12.68L37.32 12.68Q37.23 12.70 37.14 12.73L37.14 12.73L37.14 12.73Q36.76 12.84 36.44 12.66L36.44 12.66L36.44 12.66Q36.47 11.66 36.53 10.65L36.53 10.65L36.53 10.65Q36.54 10.36 36.53 10.04L36.53 10.04L36.53 10.04Q36.51 9.73 36.47 9.44L36.47 9.44L36.47 9.44Q36.36 8.75 36.03 8.53L36.03 8.53L36.03 8.53Q35.70 8.32 35.33 8.41L35.33 8.41L35.33 8.41Q34.96 8.50 34.64 8.81L34.64 8.81L34.64 8.81Q34.33 9.13 34.24 9.49L34.24 9.49L34.24 9.49Q34.08 10.21 34.05 10.93L34.05 10.93L34.05 10.93Q34.03 11.66 34.03 12.38L34.03 12.38L34.03 12.71L34.03 12.71Q33.92 12.71 33.75 12.73L33.75 12.73L33.75 12.73Q33.59 12.74 33.42 12.74L33.42 12.74L33.42 12.74Q33.25 12.74 33.12 12.69L33.12 12.69L33.12 12.69Q32.98 12.64 32.93 12.52L32.93 12.52L32.93 12.52Q32.93 12.40 32.93 11.99L32.93 11.99L32.93 11.99Q32.93 11.58 32.92 11.02L32.92 11.02L32.92 11.02Q32.91 10.46 32.91 9.84L32.91 9.84L32.91 9.84Q32.91 9.21 32.92 8.67L32.92 8.67L32.92 8.67Q32.93 8.13 32.95 7.77L32.95 7.77L32.95 7.77Q32.97 7.41 33.01 7.36L33.01 7.36L33.01 7.36Q33.03 7.34 33.10 7.32L33.10 7.32L33.10 7.32Q33.17 7.31 33.25 7.30L33.25 7.30L33.25 7.30Q33.33 7.29 33.40 7.29L33.40 7.29L33.40 7.29Q33.47 7.29 33.52 7.28L33.52 7.28L33.52 7.28Q33.59 7.22 33.70 7.25L33.70 7.25L33.70 7.25Q33.81 7.28 33.88 7.28L33.88 7.28L33.88 7.28Q33.95 7.48 33.98 7.71L33.98 7.71L33.98 7.71Q34.02 7.94 34.02 8.18L34.02 8.18L34.02 8.18Q34.38 7.77 34.87 7.47L34.87 7.47L34.87 7.47Q35.35 7.17 35.83 7.11L35.83 7.11L35.83 7.11Q36.32 7.04 36.75 7.28L36.75 7.28L36.75 7.28Q37.18 7.52 37.45 8.19L37.45 8.19L37.45 8.19Q37.72 8.85 37.74 9.58L37.74 9.58L37.74 9.58Q37.76 10.30 37.74 11.00L37.74 11.00L37.74 11.00Q37.74 11.14 37.74 11.38L37.74 11.38L37.74 11.38Q37.73 11.61 37.70 11.84L37.70 11.84L37.70 11.84Q37.67 12.08 37.63 12.31L37.63 12.31L37.63 12.31Q37.59 12.53 37.52 12.66ZM42.76 10.89L42.76 10.89L42.76 10.89Q42.84 10.74 42.94 10.43L42.94 10.43L42.94 10.43Q43.04 10.12 43.10 9.78L43.10 9.78L43.10 9.78Q43.16 9.44 43.16 9.13L43.16 9.13L43.16 9.13Q43.16 8.83 43.05 8.71L43.05 8.71L43.05 8.71Q42.80 8.41 42.45 8.29L42.45 8.29L42.45 8.29Q42.11 8.18 41.76 8.20L41.76 8.20L41.76 8.20Q41.41 8.22 41.08 8.38L41.08 8.38L41.08 8.38Q40.74 8.54 40.50 8.81L40.50 8.81L40.50 8.81Q40.31 9.03 40.19 9.31L40.19 9.31L40.19 9.31Q40.07 9.59 40.01 9.87L40.01 9.87L40.01 9.87Q39.89 10.58 40.15 10.95L40.15 10.95L40.15 10.95Q40.40 11.31 40.84 11.40L40.84 11.40L40.84 11.40Q41.29 11.48 41.81 11.33L41.81 11.33L41.81 11.33Q42.34 11.19 42.76 10.89ZM38.84 14.38L38.84 14.38L38.84 14.38Q38.98 14.14 39.19 13.99L39.19 13.99L39.19 13.99Q39.41 13.83 39.61 13.65L39.61 13.65L39.61 13.65Q39.76 13.85 39.94 14.04L39.94 14.04L39.94 14.04Q40.11 14.24 40.31 14.38L40.31 14.38L40.31 14.38Q40.52 14.53 40.75 14.62L40.75 14.62L40.75 14.62Q40.99 14.70 41.27 14.67L41.27 14.67L41.27 14.67Q42.21 14.57 42.57 14.04L42.57 14.04L42.57 14.04Q42.94 13.50 42.94 12.63L42.94 12.63L42.94 12.61L42.94 12.61Q42.94 12.46 42.92 12.30L42.92 12.30L42.92 12.30Q42.91 12.14 42.90 11.98L42.90 11.98L42.90 11.98Q42.60 12.17 42.29 12.32L42.29 12.32L42.29 12.32Q41.97 12.47 41.64 12.57L41.64 12.57L41.64 12.57Q41.31 12.67 40.97 12.68L40.97 12.68L40.97 12.68Q40.63 12.68 40.29 12.56L40.29 12.56L40.29 12.56Q39.56 12.31 39.19 11.79L39.19 11.79L39.19 11.79Q38.82 11.28 38.74 10.68L38.74 10.68L38.74 10.68Q38.67 10.07 38.86 9.42L38.86 9.42L38.86 9.42Q39.05 8.78 39.45 8.25L39.45 8.25L39.45 8.25Q39.84 7.71 40.41 7.38L40.41 7.38L40.41 7.38Q40.98 7.04 41.68 7.04L41.68 7.04L41.68 7.04Q42.08 7.04 42.46 7.19L42.46 7.19L42.46 7.19Q42.84 7.34 43.20 7.53L43.20 7.53L43.20 7.53Q43.25 7.41 43.30 7.30L43.30 7.30L43.30 7.30Q43.34 7.20 43.37 7.07L43.37 7.07L43.37 7.07Q43.48 7.01 43.61 7.04L43.61 7.04L43.61 7.04Q43.74 7.07 43.82 7.15L43.82 7.15L44.35 7.27L44.35 7.27Q44.30 7.94 44.26 8.58L44.26 8.58L44.26 8.58Q44.23 9.23 44.20 9.90L44.20 9.90L44.20 9.90Q44.17 10.18 44.17 10.48L44.17 10.48L44.17 10.48Q44.17 10.78 44.14 11.07L44.14 11.07L44.14 11.07Q44.16 11.09 44.16 11.12L44.16 11.12L44.16 11.12Q44.16 11.61 44.16 12.12L44.16 12.12L44.16 12.12Q44.17 12.63 44.11 13.13L44.11 13.13L44.11 13.13Q44.04 13.64 43.86 14.10L43.86 14.10L43.86 14.10Q43.67 14.56 43.29 14.92L43.29 14.92L43.29 14.92Q42.97 15.23 42.57 15.41L42.57 15.41L42.57 15.41Q42.18 15.58 41.76 15.64L41.76 15.64L41.76 15.64Q41.33 15.71 40.89 15.67L40.89 15.67L40.89 15.67Q40.45 15.62 40.05 15.47L40.05 15.47L40.05 15.47Q39.90 15.41 39.71 15.29L39.71 15.29L39.71 15.29Q39.52 15.18 39.35 15.02L39.35 15.02L39.35 15.02Q39.17 14.87 39.03 14.70L39.03 14.70L39.03 14.70Q38.89 14.53 38.84 14.38Z"></path></g><!----><!----></svg>