<svg data-v-fde0c5aa="" xmlns="http://www.w3.org/2000/svg" viewBox="0 0 300 300" class="iconAbove"><!----><defs data-v-fde0c5aa=""><!----></defs><rect data-v-fde0c5aa="" fill="transparent" x="0" y="0" width="300px" height="300px" class="logo-background-square"></rect><defs data-v-fde0c5aa=""><linearGradient data-v-fde0c5aa="" gradientTransform="rotate(25)" id="a2cae2f3-d1b2-4fec-a50c-ad970550b8dd" x1="0%" y1="0%" x2="100%" y2="0%"><stop data-v-fde0c5aa="" offset="0%" stop-color="#DB8005" stop-opacity="1"></stop><stop data-v-fde0c5aa="" offset="100%" stop-color="#ECE815" stop-opacity="1"></stop></linearGradient></defs><g data-v-fde0c5aa="" id="4c0b1b40-58fc-4005-b18b-1141716605ef" fill="url(#a2cae2f3-d1b2-4fec-a50c-ad970550b8dd)" transform="matrix(5.217110633850098,0,0,5.217110633850098,30.852199354317985,195.1121872477805)"><path d="M7.31 9.60L7.31 9.60L7.31 9.60Q7.32 9.59 7.43 9.54L7.43 9.54L7.43 9.54Q7.53 9.49 7.66 9.44L7.66 9.44L7.66 9.44Q7.78 9.39 7.88 9.35L7.88 9.35L7.88 9.35Q7.98 9.31 8.01 9.30L8.01 9.30L8.34 9.06L8.34 9.06Q8.23 8.60 8.16 8.12L8.16 8.12L8.16 8.12Q8.09 7.64 8.02 7.15L8.02 7.15L8.02 7.15Q7.85 6.09 7.74 5.03L7.74 5.03L7.74 5.03Q7.62 3.98 7.55 2.88L7.55 2.88L7.55 2.88Q7.49 2.30 7.48 1.73L7.48 1.73L7.48 1.73Q7.46 1.16 7.41 0.59L7.41 0.59L7.41 0.59Q7.36 0.52 7.32 0.41L7.32 0.41L7.32 0.41Q7.27 0.29 7.16 0.19L7.16 0.19L7.16 0.19Q7.06 0.08 6.88 0.01L6.88 0.01L6.88 0.01Q6.71-0.07 6.43-0.07L6.43-0.07L6.44-0.07L6.29-0.04L6.29-0.04Q6.22 0.03 6.12 0.08L6.12 0.08L6.12 0.08Q6.02 0.13 5.92 0.15L5.92 0.15L5.92 0.15Q5.77 0.29 5.61 0.41L5.61 0.41L5.61 0.41Q5.46 0.53 5.31 0.69L5.31 0.69L5.31 0.69Q5.05 0.94 4.87 1.23L4.87 1.23L4.87 1.23Q4.28 2.11 3.72 3.02L3.72 3.02L3.72 3.02Q3.16 3.92 2.60 4.83L2.60 4.83L2.60 4.83Q2.30 5.32 2.00 5.81L2.00 5.81L2.00 5.81Q1.71 6.30 1.41 6.79L1.41 6.79L1.41 6.79Q1.26 7.07 1.09 7.35L1.09 7.35L1.09 7.35Q0.92 7.63 0.78 7.91L0.78 7.91L0.78 7.91Q0.67 8.12 0.55 8.36L0.55 8.36L0.55 8.36Q0.43 8.60 0.35 8.81L0.35 8.81L0.35 8.81Q0.35 8.83 0.32 8.90L0.32 8.90L0.32 8.90Q0.29 8.97 0.26 9.06L0.26 9.06L0.26 9.06Q0.22 9.14 0.19 9.21L0.19 9.21L0.19 9.21Q0.15 9.28 0.15 9.32L0.15 9.32L0.15 9.32Q0.14 9.39 0.15 9.42L0.15 9.42L0.15 9.42Q0.15 9.44 0.18 9.45L0.18 9.45L0.18 9.45Q0.21 9.46 0.24 9.49L0.24 9.49L0.24 9.49Q0.28 9.51 0.32 9.59L0.32 9.59L0.32 9.59Q0.41 9.62 0.53 9.63L0.53 9.63L0.53 9.63Q0.66 9.63 0.80 9.63L0.80 9.63L0.80 9.63Q0.94 9.63 1.06 9.63L1.06 9.63L1.06 9.63Q1.20 9.63 1.29 9.63L1.29 9.63L1.29 9.63Q1.47 9.42 1.71 9.05L1.71 9.05L1.71 9.05Q1.95 8.68 2.19 8.27L2.19 8.27L2.19 8.27Q2.44 7.87 2.65 7.48L2.65 7.48L2.65 7.48Q2.86 7.08 3.01 6.83L3.01 6.83L3.01 6.83Q3.43 6.86 3.87 6.89L3.87 6.89L3.87 6.89Q4.31 6.92 4.86 6.85L4.86 6.85L4.86 6.85Q5.08 6.82 5.34 6.85L5.34 6.85L5.34 6.85Q5.60 6.89 5.81 6.87L5.81 6.87L6.34 6.86L6.34 6.86Q6.38 6.94 6.40 7.07L6.40 7.07L6.40 7.07Q6.44 7.29 6.48 7.65L6.48 7.65L6.48 7.65Q6.52 8.01 6.59 8.37L6.59 8.37L6.59 8.37Q6.66 8.74 6.76 9.06L6.76 9.06L6.76 9.06Q6.86 9.38 7.01 9.52L7.01 9.52L7.01 9.52Q7.04 9.53 7.06 9.56L7.06 9.56L7.06 9.56Q7.08 9.58 7.11 9.58L7.11 9.58L7.11 9.58Q7.14 9.60 7.20 9.60L7.20 9.60L7.20 9.60Q7.27 9.60 7.31 9.60ZM6.24 5.46L6.22 5.57L6.22 5.57Q6.03 5.60 5.71 5.60L5.71 5.60L5.71 5.60Q5.40 5.60 5.06 5.58L5.06 5.58L5.06 5.58Q4.72 5.56 4.42 5.53L4.42 5.53L4.42 5.53Q4.13 5.50 3.99 5.47L3.99 5.47L3.99 5.47Q3.91 5.45 3.85 5.43L3.85 5.43L3.85 5.43Q4.12 4.93 4.38 4.47L4.38 4.47L4.38 4.47Q4.63 4.02 4.89 3.58L4.89 3.58L4.89 3.58Q5.15 3.14 5.43 2.69L5.43 2.69L5.43 2.69Q5.71 2.24 6.03 1.76L6.03 1.76L6.03 1.76Q6.06 1.96 6.07 2.22L6.07 2.22L6.07 2.22Q6.08 2.48 6.09 2.66L6.09 2.66L6.16 3.61L6.16 3.61Q6.19 3.96 6.20 4.17L6.20 4.17L6.20 4.17Q6.22 4.37 6.22 4.54L6.22 4.54L6.22 4.54Q6.23 4.70 6.24 4.91L6.24 4.91L6.24 4.91Q6.24 5.11 6.24 5.46L6.24 5.46ZM9.62 9.52L9.62 9.52L9.62 9.52Q9.70 9.60 9.92 9.66L9.92 9.66L9.92 9.66Q10.14 9.72 10.36 9.72L10.36 9.72L10.36 9.72Q10.60 9.72 10.80 9.66L10.80 9.66L10.80 9.66Q11.00 9.60 11.05 9.48L11.05 9.48L11.05 9.48Q11.06 9.46 11.09 9.37L11.09 9.37L11.09 9.37Q11.12 9.28 11.14 9.18L11.14 9.18L11.14 9.18Q11.17 9.07 11.19 8.97L11.19 8.97L11.19 8.97Q11.20 8.88 11.20 8.85L11.20 8.85L11.20 8.85Q11.20 8.79 11.24 8.55L11.24 8.55L11.24 8.55Q11.28 8.32 11.34 7.99L11.34 7.99L11.34 7.99Q11.40 7.67 11.46 7.32L11.46 7.32L11.46 7.32Q11.52 6.96 11.58 6.66L11.58 6.66L11.58 6.66Q11.63 6.36 11.68 6.16L11.68 6.16L11.68 6.16Q11.72 5.96 11.73 5.96L11.73 5.96L11.73 5.96Q11.86 5.95 12.12 5.96L12.12 5.96L12.12 5.96Q12.39 5.96 12.77 5.94L12.77 5.94L12.77 5.94Q13.15 5.91 13.60 5.82L13.60 5.82L13.60 5.82Q14.06 5.73 14.55 5.52L14.55 5.52L14.55 5.52Q14.94 5.35 15.33 5.10L15.33 5.10L15.33 5.10Q15.72 4.84 16.07 4.53L16.07 4.53L16.07 4.53Q16.41 4.21 16.67 3.84L16.67 3.84L16.67 3.84Q16.94 3.47 17.08 3.07L17.08 3.07L17.08 3.07Q17.09 3.02 17.12 2.93L17.12 2.93L17.12 2.93Q17.15 2.83 17.19 2.73L17.19 2.73L17.19 2.73Q17.22 2.63 17.24 2.55L17.24 2.55L17.24 2.55Q17.26 2.46 17.26 2.42L17.26 2.42L17.26 2.42Q17.26 2.37 17.25 2.32L17.25 2.32L17.25 2.32Q17.23 2.28 17.26 2.23L17.26 2.23L17.26 2.23Q17.29 1.74 17.15 1.32L17.15 1.32L17.15 1.32Q17.01 0.90 16.74 0.55L16.74 0.55L16.74 0.55Q16.49 0.21 16.14-0.05L16.14-0.05L16.14-0.05Q15.79-0.31 15.32-0.36L15.32-0.36L15.32-0.36Q15.02-0.39 14.69-0.42L14.69-0.42L14.69-0.42Q14.35-0.45 14.03-0.46L14.03-0.46L14.03-0.46Q13.83-0.48 13.63-0.46L13.63-0.46L13.63-0.46Q13.43-0.43 13.23-0.43L13.23-0.43L13.23-0.43Q13.03-0.43 12.80-0.38L12.80-0.38L12.80-0.38Q12.56-0.34 12.36-0.34L12.36-0.34L12.36-0.34Q12.19-0.34 12.12-0.32L12.12-0.32L12.12-0.32Q12.04-0.31 11.89-0.24L11.89-0.24L11.89-0.24Q11.77-0.20 11.68 0.01L11.68 0.01L11.68 0.01Q11.58 0.21 11.48 0.50L11.48 0.50L11.48 0.50Q11.38 0.78 11.30 1.11L11.30 1.11L11.30 1.11Q11.23 1.43 11.18 1.69L11.18 1.69L11.18 1.69Q11.13 1.95 11.10 2.09L11.10 2.09L11.10 2.09Q11.07 2.24 11.09 2.18L11.09 2.18L10.60 4.58L10.60 4.58Q10.49 5.15 10.34 5.84L10.34 5.84L10.34 5.84Q10.19 6.52 10.05 7.21L10.05 7.21L10.05 7.21Q9.91 7.90 9.79 8.51L9.79 8.51L9.79 8.51Q9.67 9.11 9.62 9.52ZM13.65 0.85L13.68 0.84L13.68 0.84Q13.87 0.83 14.06 0.83L14.06 0.83L14.06 0.83Q14.24 0.83 14.42 0.83L14.42 0.83L14.42 0.83Q15.05 0.83 15.43 1.14L15.43 1.14L15.43 1.14Q15.81 1.46 15.90 1.90L15.90 1.90L15.90 1.90Q16.00 2.35 15.80 2.87L15.80 2.87L15.80 2.87Q15.60 3.39 15.06 3.78L15.06 3.78L15.06 3.78Q14.77 3.99 14.44 4.19L14.44 4.19L14.44 4.19Q14.11 4.38 13.73 4.52L13.73 4.52L13.73 4.52Q13.36 4.65 12.91 4.70L12.91 4.70L12.91 4.70Q12.46 4.75 11.94 4.68L11.94 4.68L11.94 4.68Q11.97 4.52 12.02 4.26L12.02 4.26L12.02 4.26Q12.07 4.00 12.10 3.93L12.10 3.93L12.10 3.93Q12.12 3.78 12.14 3.68L12.14 3.68L12.14 3.68Q12.17 3.57 12.19 3.47L12.19 3.47L12.19 3.47Q12.21 3.37 12.24 3.27L12.24 3.27L12.24 3.27Q12.26 3.16 12.29 3.01L12.29 3.01L12.29 3.01Q12.39 2.53 12.49 1.98L12.49 1.98L12.49 1.98Q12.59 1.43 12.82 0.98L12.82 0.98L12.82 0.98Q13.03 0.92 13.24 0.89L13.24 0.89L13.24 0.89Q13.45 0.85 13.65 0.85L13.65 0.85ZM17.12 9.34L17.12 9.34L17.12 9.34Q17.16 9.34 17.28 9.37L17.28 9.37L17.28 9.37Q17.40 9.39 17.54 9.43L17.54 9.43L17.54 9.43Q17.67 9.46 17.79 9.49L17.79 9.49L17.79 9.49Q17.91 9.51 17.95 9.51L17.95 9.51L17.95 9.51Q18.23 9.56 18.41 9.47L18.41 9.47L18.41 9.47Q18.59 9.38 18.59 9.38L18.59 9.38L18.97 7.85L18.97 7.85Q19.46 5.87 19.87 3.91L19.87 3.91L19.87 3.91Q20.29 1.96 20.78-0.03L20.78-0.03L20.78-0.03Q20.75-0.04 20.65-0.04L20.65-0.04L20.65-0.04Q20.57-0.04 20.46-0.06L20.46-0.06L20.46-0.06Q20.36-0.07 20.28-0.08L20.28-0.08L20.28-0.08Q20.20-0.10 20.19-0.13L20.19-0.13L20.19-0.13Q19.94-0.15 19.79-0.17L19.79-0.17L19.79-0.17Q19.64-0.18 19.40-0.03L19.40-0.03L19.40-0.03Q19.24 0.34 19.15 0.75L19.15 0.75L19.15 0.75Q19.07 1.16 18.98 1.54L18.98 1.54L18.98 1.54Q18.89 1.99 18.75 2.44L18.75 2.44L18.75 2.44Q18.62 2.88 18.52 3.33L18.52 3.33L18.52 3.33Q18.38 3.95 18.23 4.56L18.23 4.56L18.23 4.56Q18.09 5.18 17.91 5.80L17.91 5.80L17.89 5.80L17.89 5.80Q17.82 6.13 17.70 6.60L17.70 6.60L17.70 6.60Q17.57 7.07 17.44 7.57L17.44 7.57L17.44 7.57Q17.32 8.08 17.22 8.55L17.22 8.55L17.22 8.55Q17.12 9.02 17.12 9.34ZM21.92 4.65L21.92 4.65L21.92 4.65Q21.92 4.49 21.94 4.40L21.94 4.40L21.94 4.40Q21.95 4.30 21.97 4.21L21.97 4.21L21.97 4.21Q21.99 4.13 22.03 4.03L22.03 4.03L22.03 4.03Q22.06 3.93 22.09 3.77L22.09 3.77L22.09 3.77Q21.85 3.74 21.64 3.75L21.64 3.75L21.64 3.75Q21.42 3.77 21.23 3.79L21.23 3.79L21.23 3.79Q21.04 3.82 20.92 3.86L20.92 3.86L20.92 3.86Q20.79 3.89 20.75 3.91L20.75 3.91L20.75 3.91Q20.71 4.06 20.68 4.27L20.68 4.27L20.68 4.27Q20.65 4.48 20.62 4.63L20.62 4.63L20.62 4.63Q20.57 4.90 20.53 5.07L20.53 5.07L20.53 5.07Q20.50 5.24 20.47 5.38L20.47 5.38L20.47 5.38Q20.44 5.53 20.40 5.70L20.40 5.70L20.40 5.70Q20.37 5.87 20.31 6.13L20.31 6.13L20.31 6.13Q20.16 6.83 20.01 7.58L20.01 7.58L20.01 7.58Q19.85 8.33 19.68 9.10L19.68 9.10L19.68 9.10Q19.52 9.87 19.35 10.62L19.35 10.62L19.35 10.62Q19.19 11.37 19.05 12.07L19.05 12.07L19.05 12.07Q19.03 12.18 19.07 12.22L19.07 12.22L19.07 12.22Q19.08 12.24 19.20 12.28L19.20 12.28L19.20 12.28Q19.32 12.32 19.35 12.33L19.35 12.33L19.35 12.33Q19.49 12.39 19.57 12.40L19.57 12.40L19.57 12.40Q19.66 12.42 19.73 12.41L19.73 12.41L19.73 12.41Q19.81 12.40 19.91 12.37L19.91 12.37L19.91 12.37Q20.01 12.33 20.16 12.29L20.16 12.29L20.38 11.03L20.38 11.03Q20.50 10.57 20.61 10.10L20.61 10.10L20.61 10.10Q20.73 9.63 20.83 9.17L20.83 9.17L20.83 9.17Q20.94 9.18 20.99 9.25L20.99 9.25L20.99 9.25Q21.04 9.32 21.15 9.32L21.15 9.32L21.15 9.32Q21.42 9.48 21.80 9.45L21.80 9.45L21.80 9.45Q22.19 9.42 22.59 9.30L22.59 9.30L22.59 9.30Q22.99 9.17 23.37 8.97L23.37 8.97L23.37 8.97Q23.76 8.76 24.04 8.57L24.04 8.57L24.04 8.57Q24.71 8.09 25.14 7.56L25.14 7.56L25.14 7.56Q25.56 7.03 25.72 6.27L25.72 6.27L25.72 6.27Q25.93 5.26 25.37 4.54L25.37 4.54L25.37 4.54Q25.23 4.35 25.08 4.24L25.08 4.24L25.08 4.24Q24.93 4.12 24.77 4.05L24.77 4.05L24.77 4.05Q24.61 3.98 24.42 3.93L24.42 3.93L24.42 3.93Q24.23 3.88 24.01 3.84L24.01 3.84L23.97 3.82L23.97 3.82Q23.62 3.89 23.33 3.93L23.33 3.93L23.33 3.93Q23.04 3.98 22.68 4.16L22.68 4.16L22.68 4.16Q22.48 4.27 22.24 4.42L22.24 4.42L22.24 4.42Q21.99 4.58 21.92 4.65ZM21.13 8.06L21.13 8.06L21.13 8.06Q21.14 7.92 21.20 7.57L21.20 7.57L21.20 7.57Q21.27 7.21 21.36 6.82L21.36 6.82L21.36 6.82Q21.45 6.43 21.57 6.09L21.57 6.09L21.57 6.09Q21.69 5.75 21.80 5.66L21.80 5.66L21.80 5.66Q22.01 5.47 22.31 5.35L22.31 5.35L22.31 5.35Q22.61 5.22 22.94 5.17L22.94 5.17L22.94 5.17Q23.27 5.11 23.58 5.14L23.58 5.14L23.58 5.14Q23.90 5.17 24.14 5.28L24.14 5.28L24.14 5.28Q24.37 5.39 24.49 5.61L24.49 5.61L24.49 5.61Q24.61 5.84 24.54 6.17L24.54 6.17L24.54 6.17Q24.43 6.65 24.18 6.98L24.18 6.98L24.18 6.98Q23.94 7.31 23.60 7.53L23.60 7.53L23.60 7.53Q23.27 7.76 22.87 7.90L22.87 7.90L22.87 7.90Q22.47 8.05 22.06 8.15L22.06 8.15L22.06 8.15Q21.50 8.27 21.13 8.06ZM30.23 3.51L30.23 3.51L30.23 3.51Q30.09 3.53 29.91 3.55L29.91 3.55L29.91 3.55Q29.74 3.57 29.57 3.63L29.57 3.63L29.57 3.63Q29.37 3.70 29.15 3.80L29.15 3.80L29.15 3.80Q28.94 3.91 28.77 4.00L28.77 4.00L28.77 4.00Q28.14 4.34 27.67 4.82L27.67 4.82L27.67 4.82Q27.20 5.29 26.91 5.84L26.91 5.84L26.91 5.84Q26.61 6.38 26.52 6.95L26.52 6.95L26.52 6.95Q26.42 7.52 26.53 8.03L26.53 8.03L26.53 8.03Q26.64 8.54 26.99 8.94L26.99 8.94L26.99 8.94Q27.34 9.34 27.93 9.56L27.93 9.56L27.93 9.56Q28.22 9.67 28.53 9.69L28.53 9.69L28.53 9.69Q29.30 9.73 29.99 9.43L29.99 9.43L29.99 9.43Q30.69 9.13 31.22 8.62L31.22 8.62L31.22 8.62Q31.75 8.12 32.11 7.47L32.11 7.47L32.11 7.47Q32.47 6.82 32.57 6.17L32.57 6.17L32.57 6.17Q32.68 5.52 32.50 4.91L32.50 4.91L32.50 4.91Q32.33 4.31 31.81 3.91L31.81 3.91L31.81 3.91Q31.49 3.65 31.07 3.57L31.07 3.57L31.07 3.57Q30.65 3.49 30.23 3.51ZM31.36 6.20L31.36 6.20L31.36 6.20Q31.25 6.76 30.96 7.18L30.96 7.18L30.96 7.18Q30.67 7.59 30.30 7.86L30.30 7.86L30.30 7.86Q29.93 8.13 29.53 8.27L29.53 8.27L29.53 8.27Q29.12 8.40 28.76 8.39L28.76 8.39L28.76 8.39Q28.39 8.39 28.11 8.24L28.11 8.24L28.11 8.24Q27.83 8.09 27.73 7.80L27.73 7.80L27.73 7.80Q27.65 7.56 27.66 7.29L27.66 7.29L27.66 7.29Q27.68 7.01 27.73 6.73L27.73 6.73L27.73 6.73Q27.76 6.59 27.83 6.46L27.83 6.46L27.83 6.46Q27.90 6.33 27.97 6.19L27.97 6.19L27.97 6.19Q28.28 5.60 28.68 5.25L28.68 5.25L28.68 5.25Q29.08 4.90 29.49 4.75L29.49 4.75L29.49 4.75Q29.90 4.59 30.28 4.63L30.28 4.63L30.28 4.63Q30.66 4.68 30.93 4.87L30.93 4.87L30.93 4.87Q31.21 5.07 31.33 5.41L31.33 5.41L31.33 5.41Q31.46 5.75 31.36 6.20ZM37.55 9.41L37.55 9.41L37.55 9.41Q37.65 9.28 37.74 9.06L37.74 9.06L37.74 9.06Q37.83 8.83 37.91 8.60L37.91 8.60L37.91 8.60Q37.98 8.36 38.05 8.13L38.05 8.13L38.05 8.13Q38.11 7.90 38.14 7.76L38.14 7.76L38.14 7.76Q38.29 7.04 38.43 6.33L38.43 6.33L38.43 6.33Q38.57 5.61 38.43 4.94L38.43 4.94L38.43 4.94Q38.30 4.27 37.92 4.03L37.92 4.03L37.92 4.03Q37.53 3.79 37.04 3.86L37.04 3.86L37.04 3.86Q36.54 3.92 35.99 4.22L35.99 4.22L35.99 4.22Q35.45 4.52 35 4.93L35 4.93L35 4.93Q35.10 4.47 35.06 4.03L35.06 4.03L35.06 4.03Q34.99 4.03 34.88 4.00L34.88 4.00L34.88 4.00Q34.78 3.98 34.69 4.03L34.69 4.03L34.69 4.03Q34.65 4.05 34.58 4.05L34.58 4.05L34.58 4.05Q34.51 4.05 34.43 4.05L34.43 4.05L34.43 4.05Q34.34 4.06 34.27 4.07L34.27 4.07L34.27 4.07Q34.20 4.09 34.17 4.12L34.17 4.12L34.17 4.12Q34.12 4.16 34.02 4.52L34.02 4.52L34.02 4.52Q33.92 4.89 33.80 5.43L33.80 5.43L33.80 5.43Q33.67 5.96 33.54 6.59L33.54 6.59L33.54 6.59Q33.42 7.21 33.30 7.77L33.30 7.77L33.30 7.77Q33.18 8.33 33.10 8.74L33.10 8.74L33.10 8.74Q33.03 9.16 33.00 9.27L33.00 9.27L33.00 9.27Q33.03 9.39 33.15 9.44L33.15 9.44L33.15 9.44Q33.28 9.49 33.45 9.49L33.45 9.49L33.45 9.49Q33.61 9.49 33.78 9.48L33.78 9.48L33.78 9.48Q33.95 9.46 34.06 9.46L34.06 9.46L34.06 9.46Q34.06 9.46 34.08 9.35L34.08 9.35L34.08 9.35Q34.10 9.23 34.13 9.13L34.13 9.13L34.13 9.13Q34.29 8.41 34.46 7.69L34.46 7.69L34.46 7.69Q34.64 6.96 34.96 6.24L34.96 6.24L34.96 6.24Q35.06 6.01 35.27 5.78L35.27 5.78L35.27 5.78Q35.49 5.54 35.74 5.38L35.74 5.38L35.74 5.38Q35.99 5.22 36.26 5.15L36.26 5.15L36.26 5.15Q36.53 5.08 36.74 5.16L36.74 5.16L36.74 5.16Q36.96 5.24 37.09 5.48L37.09 5.48L37.09 5.48Q37.21 5.73 37.18 6.19L37.18 6.19L37.18 6.19Q37.14 6.79 36.99 7.41L36.99 7.41L36.99 7.41Q36.85 7.91 36.72 8.41L36.72 8.41L36.72 8.41Q36.58 8.92 36.47 9.41L36.47 9.41L36.47 9.41Q36.61 9.49 36.78 9.52L36.78 9.52L36.78 9.52Q36.95 9.55 37.16 9.48L37.16 9.48L37.16 9.48Q37.25 9.45 37.35 9.44L37.35 9.44L37.35 9.44Q37.45 9.42 37.55 9.41ZM43.16 7.64L43.16 7.64L43.16 7.64Q42.69 7.94 42.13 8.09L42.13 8.09L42.13 8.09Q41.58 8.23 41.15 8.15L41.15 8.15L41.15 8.15Q40.73 8.06 40.54 7.70L40.54 7.70L40.54 7.70Q40.36 7.34 40.64 6.62L40.64 6.62L40.64 6.62Q40.75 6.34 40.93 6.06L40.93 6.06L40.93 6.06Q41.10 5.78 41.36 5.56L41.36 5.56L41.36 5.56Q41.65 5.29 42.01 5.13L42.01 5.13L42.01 5.13Q42.38 4.97 42.73 4.95L42.73 4.95L42.73 4.95Q43.09 4.93 43.41 5.05L43.41 5.05L43.41 5.05Q43.72 5.17 43.92 5.46L43.92 5.46L43.92 5.46Q44.00 5.59 43.94 5.89L43.94 5.89L43.94 5.89Q43.88 6.19 43.74 6.53L43.74 6.53L43.74 6.53Q43.60 6.87 43.44 7.18L43.44 7.18L43.44 7.18Q43.27 7.49 43.16 7.64ZM38.50 11.13L38.50 11.13L38.50 11.13Q38.53 11.28 38.63 11.45L38.63 11.45L38.63 11.45Q38.74 11.62 38.88 11.77L38.88 11.77L38.88 11.77Q39.03 11.93 39.19 12.05L39.19 12.05L39.19 12.05Q39.35 12.17 39.49 12.22L39.49 12.22L39.49 12.22Q39.86 12.38 40.29 12.42L40.29 12.42L40.29 12.42Q40.71 12.46 41.15 12.40L41.15 12.40L41.15 12.40Q41.59 12.33 42.03 12.16L42.03 12.16L42.03 12.16Q42.46 11.98 42.84 11.68L42.84 11.68L42.84 11.68Q43.30 11.31 43.58 10.85L43.58 10.85L43.58 10.85Q43.86 10.39 44.04 9.88L44.04 9.88L44.04 9.88Q44.21 9.38 44.31 8.87L44.31 8.87L44.31 8.87Q44.41 8.36 44.52 7.87L44.52 7.87L44.52 7.87Q44.52 7.84 44.51 7.83L44.51 7.83L44.51 7.83Q44.60 7.53 44.67 7.23L44.67 7.23L44.67 7.23Q44.74 6.93 44.81 6.65L44.81 6.65L44.81 6.65Q45.00 5.98 45.16 5.33L45.16 5.33L45.16 5.33Q45.33 4.69 45.53 4.02L45.53 4.02L45.02 3.91L45.02 3.91Q44.95 3.82 44.83 3.79L44.83 3.79L44.83 3.79Q44.70 3.77 44.59 3.82L44.59 3.82L44.59 3.82Q44.55 3.95 44.47 4.05L44.47 4.05L44.47 4.05Q44.39 4.16 44.32 4.28L44.32 4.28L44.32 4.28Q44.00 4.09 43.66 3.94L43.66 3.94L43.66 3.94Q43.32 3.79 42.91 3.79L42.91 3.79L42.91 3.79Q42.21 3.79 41.57 4.13L41.57 4.13L41.57 4.13Q40.92 4.47 40.42 5.00L40.42 5.00L40.42 5.00Q39.91 5.53 39.59 6.17L39.59 6.17L39.59 6.17Q39.26 6.82 39.21 7.43L39.21 7.43L39.21 7.43Q39.16 8.04 39.42 8.55L39.42 8.55L39.42 8.55Q39.68 9.06 40.35 9.31L40.35 9.31L40.35 9.31Q40.66 9.44 41.00 9.43L41.00 9.43L41.00 9.43Q41.34 9.42 41.69 9.32L41.69 9.32L41.69 9.32Q42.04 9.23 42.39 9.07L42.39 9.07L42.39 9.07Q42.74 8.92 43.08 8.74L43.08 8.74L43.08 8.74Q43.05 8.89 43.03 9.05L43.03 9.05L43.03 9.05Q43.01 9.21 42.98 9.37L42.98 9.37L42.98 9.38L42.98 9.38Q42.78 10.25 42.31 10.79L42.31 10.79L42.31 10.79Q41.85 11.33 40.88 11.42L40.88 11.42L40.88 11.42Q40.60 11.45 40.38 11.37L40.38 11.37L40.38 11.37Q40.15 11.28 39.98 11.14L39.98 11.14L39.98 11.14Q39.82 10.99 39.68 10.79L39.68 10.79L39.68 10.79Q39.54 10.60 39.42 10.40L39.42 10.40L39.42 10.40Q39.20 10.58 38.95 10.74L38.95 10.74L38.95 10.74Q38.70 10.89 38.50 11.13Z"></path></g><defs data-v-fde0c5aa=""><linearGradient data-v-fde0c5aa="" gradientTransform="rotate(25)" id="be31e0ab-d68d-465c-86b4-d8c772028ae0" x1="0%" y1="0%" x2="100%" y2="0%"><stop data-v-fde0c5aa="" offset="0%" stop-color="#DB8005" stop-opacity="1"></stop><stop data-v-fde0c5aa="" offset="100%" stop-color="#ECE815" stop-opacity="1"></stop></linearGradient></defs><g data-v-fde0c5aa="" id="bc1e5ae5-42c7-407b-a9d5-3f15e5b8bc6e" stroke="none" fill="url(#be31e0ab-d68d-465c-86b4-d8c772028ae0)" transform="matrix(1.5199400186538696,0,0,1.5199400186538696,74.4589914547902,30.424377953125646)"><circle cx="49.7" cy="50.6" r="1.9"></circle><circle cx="49.7" cy="36.1" r=".9"></circle><circle cx="49.7" cy="29.3" r="1.4"></circle><circle cx="49.7" cy="22.6" r="1.9"></circle><circle cx="49.7" cy="15.8" r="2.3"></circle><circle cx="49.7" cy="9.1" r="2.8"></circle><circle cx="39.4" cy="40.3" r=".9"></circle><circle cx="34.7" cy="35.6" r="1.4"></circle><circle cx="29.9" cy="30.8" r="1.9"></circle><circle cx="25.1" cy="26" r="2.3"></circle><circle cx="20.3" cy="21.2" r="2.8"></circle><g><circle cx="35.2" cy="50.6" r=".9"></circle><circle cx="28.4" cy="50.6" r="1.4"></circle><circle cx="21.7" cy="50.6" r="1.9"></circle><circle cx="14.9" cy="50.6" r="2.3"></circle><circle cx="8.2" cy="50.6" r="2.8"></circle></g><g><circle cx="39.4" cy="60.8" r=".9"></circle><circle cx="34.7" cy="65.6" r="1.4"></circle><circle cx="29.9" cy="70.4" r="1.9"></circle><circle cx="25.1" cy="75.2" r="2.3"></circle><circle cx="20.3" cy="79.9" r="2.8"></circle></g><g><circle cx="49.7" cy="65.1" r=".9"></circle><circle cx="49.7" cy="71.8" r="1.4"></circle><circle cx="49.7" cy="78.6" r="1.9"></circle><circle cx="49.7" cy="85.3" r="2.3"></circle><circle cx="49.7" cy="92.1" r="2.8"></circle></g><g><circle cx="59.9" cy="60.8" r=".9"></circle><circle cx="64.7" cy="65.6" r="1.4"></circle><circle cx="69.5" cy="70.4" r="1.9"></circle><circle cx="74.3" cy="75.2" r="2.3"></circle><circle cx="79" cy="79.9" r="2.8"></circle></g><g><circle cx="64.2" cy="50.6" r=".9"></circle><circle cx="70.9" cy="50.6" r="1.4"></circle><circle cx="77.7" cy="50.6" r="1.9"></circle><circle cx="84.4" cy="50.6" r="2.3"></circle><circle cx="91.2" cy="50.6" r="2.8"></circle></g><g><circle cx="59.9" cy="40.3" r=".9"></circle><circle cx="64.7" cy="35.6" r="1.4"></circle><circle cx="69.5" cy="30.8" r="1.9"></circle><circle cx="74.3" cy="26" r="2.3"></circle><circle cx="79" cy="21.2" r="2.8"></circle></g></g><!----></svg>